<!DOCTYPE svg PUBLIC "-//W3C//DTD SVG 20010904//EN" "http://www.w3.org/TR/2001/REC-SVG-20010904/DTD/svg10.dtd">
<svg version="1.0" xmlns="http://www.w3.org/2000/svg" width="376px" height="359px" viewBox="0 0 3760 3590" preserveAspectRatio="xMidYMid meet">
<g id="layer101" fill="#ffffff" stroke="none">
 <path d="M0 3550 l0 -40 40 0 40 0 0 40 0 40 -40 0 -40 0 0 -40z"/>
 <path d="M160 3550 l0 -40 40 0 40 0 0 40 0 40 -40 0 -40 0 0 -40z"/>
 <path d="M310 3550 l0 -40 50 0 50 0 0 40 0 40 -50 0 -50 0 0 -40z"/>
 <path d="M470 3550 l0 -40 45 0 45 0 0 40 0 40 -45 0 -45 0 0 -40z"/>
 <path d="M640 3550 l0 -40 40 0 40 0 0 40 0 40 -40 0 -40 0 0 -40z"/>
 <path d="M800 3550 l0 -40 45 0 45 0 0 40 0 40 -45 0 -45 0 0 -40z"/>
 <path d="M960 3550 l0 -40 40 0 40 0 0 40 0 40 -40 0 -40 0 0 -40z"/>
 <path d="M1120 3550 l0 -40 40 0 40 0 0 40 0 40 -40 0 -40 0 0 -40z"/>
 <path d="M1280 3550 l0 -40 45 0 45 0 0 40 0 40 -45 0 -45 0 0 -40z"/>
 <path d="M1440 3550 l0 -40 40 0 40 0 0 40 0 40 -40 0 -40 0 0 -40z"/>
 <path d="M1600 3550 l0 -40 40 0 40 0 0 40 0 40 -40 0 -40 0 0 -40z"/>
 <path d="M1760 3550 l0 -40 45 0 45 0 0 40 0 40 -45 0 -45 0 0 -40z"/>
 <path d="M1920 3550 l0 -40 45 0 45 0 0 40 0 40 -45 0 -45 0 0 -40z"/>
 <path d="M2080 3550 l0 -40 45 0 45 0 0 40 0 40 -45 0 -45 0 0 -40z"/>
 <path d="M2240 3550 l0 -40 45 0 45 0 0 40 0 40 -45 0 -45 0 0 -40z"/>
 <path d="M2400 3550 l0 -40 45 0 45 0 0 40 0 40 -45 0 -45 0 0 -40z"/>
 <path d="M2560 3550 l0 -40 45 0 45 0 0 40 0 40 -45 0 -45 0 0 -40z"/>
 <path d="M2720 3550 l0 -40 45 0 45 0 0 40 0 40 -45 0 -45 0 0 -40z"/>
 <path d="M2880 3550 l0 -40 45 0 45 0 0 40 0 40 -45 0 -45 0 0 -40z"/>
 <path d="M3040 3550 l0 -40 45 0 45 0 0 40 0 40 -45 0 -45 0 0 -40z"/>
 <path d="M3200 3550 l0 -40 45 0 45 0 0 40 0 40 -45 0 -45 0 0 -40z"/>
 <path d="M3360 3550 l0 -40 45 0 45 0 0 40 0 40 -45 0 -45 0 0 -40z"/>
 <path d="M3520 3550 l0 -40 45 0 45 0 0 40 0 40 -45 0 -45 0 0 -40z"/>
 <path d="M3680 3550 l0 -40 40 0 40 0 0 40 0 40 -40 0 -40 0 0 -40z"/>
 <path d="M0 3395 l0 -45 40 0 40 0 0 45 0 45 -40 0 -40 0 0 -45z"/>
 <path d="M160 3395 l0 -45 40 0 40 0 0 45 0 45 -40 0 -40 0 0 -45z"/>
 <path d="M317 3433 c-4 -3 -7 -24 -7 -45 l0 -38 45 0 45 0 0 45 0 45 -38 0 c-21 0 -42 -3 -45 -7z"/>
 <path d="M477 3433 c-4 -3 -7 -24 -7 -45 l0 -38 45 0 45 0 0 45 0 45 -38 0 c-21 0 -42 -3 -45 -7z"/>
 <path d="M640 3395 l0 -45 40 0 40 0 0 45 0 45 -40 0 -40 0 0 -45z"/>
 <path d="M800 3395 l0 -45 40 0 40 0 0 45 0 45 -40 0 -40 0 0 -45z"/>
 <path d="M960 3395 l0 -45 40 0 40 0 0 45 0 45 -40 0 -40 0 0 -45z"/>
 <path d="M1120 3395 l0 -45 40 0 40 0 0 45 0 45 -40 0 -40 0 0 -45z"/>
 <path d="M1280 3395 l0 -45 40 0 40 0 0 45 0 45 -40 0 -40 0 0 -45z"/>
 <path d="M1440 3395 l0 -45 40 0 40 0 0 45 0 45 -40 0 -40 0 0 -45z"/>
 <path d="M1600 3395 l0 -45 40 0 40 0 0 45 0 45 -40 0 -40 0 0 -45z"/>
 <path d="M1760 3395 l0 -45 40 0 40 0 0 45 0 45 -40 0 -40 0 0 -45z"/>
 <path d="M1920 3396 l0 -46 46 0 45 0 -3 43 c-3 42 -3 42 -45 45 l-43 3 0 -45z"/>
 <path d="M2080 3396 l0 -46 46 0 45 0 -3 43 c-3 42 -3 42 -45 45 l-43 3 0 -45z"/>
 <path d="M2240 3396 l0 -46 46 0 45 0 -3 43 c-3 42 -3 42 -45 45 l-43 3 0 -45z"/>
 <path d="M2400 3396 l0 -46 46 0 45 0 -3 43 c-3 42 -3 42 -45 45 l-43 3 0 -45z"/>
 <path d="M2560 3396 l0 -46 46 0 45 0 -3 43 c-3 42 -3 42 -45 45 l-43 3 0 -45z"/>
 <path d="M2720 3396 l0 -46 46 0 45 0 -3 43 c-3 42 -3 42 -45 45 l-43 3 0 -45z"/>
 <path d="M2880 3396 l0 -46 46 0 45 0 -3 43 c-3 42 -3 42 -45 45 l-43 3 0 -45z"/>
 <path d="M3040 3396 l0 -46 46 0 45 0 -3 43 c-3 42 -3 42 -45 45 l-43 3 0 -45z"/>
 <path d="M3200 3396 l0 -46 46 0 45 0 -3 43 c-3 42 -3 42 -45 45 l-43 3 0 -45z"/>
 <path d="M3360 3396 l0 -46 46 0 45 0 -3 43 c-3 42 -3 42 -45 45 l-43 3 0 -45z"/>
 <path d="M3520 3396 l0 -46 46 0 45 0 -3 43 c-3 42 -3 42 -45 45 l-43 3 0 -45z"/>
 <path d="M3680 3395 l0 -45 40 0 40 0 0 45 0 45 -40 0 -40 0 0 -45z"/>
 <path d="M0 3235 l0 -45 40 0 40 0 0 45 0 45 -40 0 -40 0 0 -45z"/>
 <path d="M160 3235 l0 -45 40 0 40 0 0 45 0 45 -40 0 -40 0 0 -45z"/>
 <path d="M317 3273 c-4 -3 -7 -24 -7 -45 l0 -38 45 0 45 0 0 45 0 45 -38 0 c-21 0 -42 -3 -45 -7z"/>
 <path d="M470 3235 l0 -45 45 0 45 0 0 45 0 45 -45 0 -45 0 0 -45z"/>
 <path d="M640 3235 l0 -45 40 0 40 0 0 45 0 45 -40 0 -40 0 0 -45z"/>
 <path d="M800 3235 l0 -45 40 0 40 0 0 45 0 45 -40 0 -40 0 0 -45z"/>
 <path d="M960 3235 l0 -45 40 0 40 0 0 45 0 45 -40 0 -40 0 0 -45z"/>
 <path d="M1120 3235 l0 -45 40 0 40 0 0 45 0 45 -40 0 -40 0 0 -45z"/>
 <path d="M1280 3235 l0 -45 40 0 40 0 0 45 0 45 -40 0 -40 0 0 -45z"/>
 <path d="M1440 3235 l0 -45 40 0 40 0 0 45 0 45 -40 0 -40 0 0 -45z"/>
 <path d="M1600 3235 l0 -45 40 0 40 0 0 45 0 45 -40 0 -40 0 0 -45z"/>
 <path d="M1760 3235 l0 -45 40 0 40 0 0 45 0 45 -40 0 -40 0 0 -45z"/>
 <path d="M1920 3236 l0 -46 46 0 45 0 -3 43 c-3 42 -3 42 -45 45 l-43 3 0 -45z"/>
 <path d="M2080 3236 l0 -46 46 0 45 0 -3 43 c-3 42 -3 42 -45 45 l-43 3 0 -45z"/>
 <path d="M2240 3236 l0 -46 46 0 45 0 -3 43 c-3 42 -3 42 -45 45 l-43 3 0 -45z"/>
 <path d="M2400 3235 l0 -45 45 0 45 0 0 45 0 45 -45 0 -45 0 0 -45z"/>
 <path d="M2560 3235 l0 -45 45 0 45 0 0 45 0 45 -45 0 -45 0 0 -45z"/>
 <path d="M2720 3235 l0 -45 45 0 45 0 0 45 0 45 -45 0 -45 0 0 -45z"/>
 <path d="M2880 3236 l0 -46 46 0 45 0 -3 43 c-3 42 -3 42 -45 45 l-43 3 0 -45z"/>
 <path d="M3040 3236 l0 -46 46 0 45 0 -3 43 c-3 42 -3 42 -45 45 l-43 3 0 -45z"/>
 <path d="M3200 3236 l0 -46 46 0 45 0 -3 43 c-3 42 -3 42 -45 45 l-43 3 0 -45z"/>
 <path d="M3360 3235 l0 -45 45 0 45 0 0 45 0 45 -45 0 -45 0 0 -45z"/>
 <path d="M3520 3235 l0 -45 45 0 45 0 0 45 0 45 -45 0 -45 0 0 -45z"/>
 <path d="M3680 3235 l0 -45 40 0 40 0 0 45 0 45 -40 0 -40 0 0 -45z"/>
 <path d="M0 3075 l0 -45 40 0 40 0 0 45 0 45 -40 0 -40 0 0 -45z"/>
 <path d="M160 3075 l0 -45 40 0 40 0 0 45 0 45 -40 0 -40 0 0 -45z"/>
 <path d="M317 3113 c-4 -3 -7 -24 -7 -45 l0 -38 45 0 45 0 0 45 0 45 -38 0 c-21 0 -42 -3 -45 -7z"/>
 <path d="M470 3075 l0 -45 45 0 45 0 0 45 0 45 -45 0 -45 0 0 -45z"/>
 <path d="M640 3075 l0 -45 40 0 40 0 0 45 0 45 -40 0 -40 0 0 -45z"/>
 <path d="M800 3075 l0 -45 40 0 40 0 0 45 0 45 -40 0 -40 0 0 -45z"/>
 <path d="M960 3075 l0 -45 40 0 40 0 0 45 0 45 -40 0 -40 0 0 -45z"/>
 <path d="M1120 3075 l0 -45 40 0 40 0 0 45 0 45 -40 0 -40 0 0 -45z"/>
 <path d="M1280 3075 l0 -45 40 0 40 0 0 45 0 45 -40 0 -40 0 0 -45z"/>
 <path d="M1440 3075 l0 -45 40 0 40 0 0 45 0 45 -40 0 -40 0 0 -45z"/>
 <path d="M1600 3075 l0 -45 40 0 40 0 0 45 0 45 -40 0 -40 0 0 -45z"/>
 <path d="M1760 3075 l0 -45 40 0 40 0 0 45 0 45 -40 0 -40 0 0 -45z"/>
 <path d="M1920 3076 l0 -46 46 0 45 0 -3 43 c-3 42 -3 42 -45 45 l-43 3 0 -45z"/>
 <path d="M2080 3076 l0 -46 46 0 45 0 -3 43 c-3 42 -3 42 -45 45 l-43 3 0 -45z"/>
 <path d="M2240 3076 l0 -46 46 0 45 0 -3 43 c-3 42 -3 42 -45 45 l-43 3 0 -45z"/>
 <path d="M2400 3075 l0 -45 45 0 45 0 0 45 0 45 -45 0 -45 0 0 -45z"/>
 <path d="M2560 3075 l0 -45 45 0 45 0 0 45 0 45 -45 0 -45 0 0 -45z"/>
 <path d="M2720 3075 l0 -45 45 0 45 0 0 45 0 45 -45 0 -45 0 0 -45z"/>
 <path d="M2880 3076 l0 -46 46 0 45 0 -3 43 c-3 42 -3 42 -45 45 l-43 3 0 -45z"/>
 <path d="M3040 3076 l0 -46 46 0 45 0 -3 43 c-3 42 -3 42 -45 45 l-43 3 0 -45z"/>
 <path d="M3200 3076 l0 -46 46 0 45 0 -3 43 c-3 42 -3 42 -45 45 l-43 3 0 -45z"/>
 <path d="M3360 3075 l0 -45 45 0 45 0 0 45 0 45 -45 0 -45 0 0 -45z"/>
 <path d="M3520 3075 l0 -45 45 0 45 0 0 45 0 45 -45 0 -45 0 0 -45z"/>
 <path d="M3680 3075 l0 -45 40 0 40 0 0 45 0 45 -40 0 -40 0 0 -45z"/>
 <path d="M0 2915 l0 -45 40 0 40 0 0 45 0 45 -40 0 -40 0 0 -45z"/>
 <path d="M160 2915 l0 -45 40 0 40 0 0 45 0 45 -40 0 -40 0 0 -45z"/>
 <path d="M317 2953 c-4 -3 -7 -24 -7 -45 l0 -38 45 0 45 0 0 45 0 45 -38 0 c-21 0 -42 -3 -45 -7z"/>
 <path d="M470 2915 l0 -45 45 0 45 0 0 45 0 45 -45 0 -45 0 0 -45z"/>
 <path d="M640 2915 l0 -45 40 0 40 0 0 45 0 45 -40 0 -40 0 0 -45z"/>
 <path d="M800 2915 l0 -45 40 0 40 0 0 45 0 45 -40 0 -40 0 0 -45z"/>
 <path d="M960 2915 l0 -45 40 0 40 0 0 45 0 45 -40 0 -40 0 0 -45z"/>
 <path d="M1120 2915 l0 -45 40 0 40 0 0 45 0 45 -40 0 -40 0 0 -45z"/>
 <path d="M1280 2915 l0 -45 40 0 40 0 0 45 0 45 -40 0 -40 0 0 -45z"/>
 <path d="M1440 2915 l0 -45 40 0 40 0 0 45 0 45 -40 0 -40 0 0 -45z"/>
 <path d="M1600 2915 l0 -45 40 0 40 0 0 45 0 45 -40 0 -40 0 0 -45z"/>
 <path d="M1760 2915 l0 -45 40 0 40 0 0 45 0 45 -40 0 -40 0 0 -45z"/>
 <path d="M1920 2916 l0 -46 46 0 45 0 -3 43 c-3 42 -3 42 -45 45 l-43 3 0 -45z"/>
 <path d="M2080 2916 l0 -46 46 0 45 0 -3 43 c-3 42 -3 42 -45 45 l-43 3 0 -45z"/>
 <path d="M2240 2916 l0 -46 46 0 45 0 -3 43 c-3 42 -3 42 -45 45 l-43 3 0 -45z"/>
 <path d="M2400 2915 l0 -45 45 0 45 0 0 45 0 45 -45 0 -45 0 0 -45z"/>
 <path d="M2560 2915 l0 -45 45 0 45 0 0 45 0 45 -45 0 -45 0 0 -45z"/>
 <path d="M2720 2915 l0 -45 45 0 45 0 0 45 0 45 -45 0 -45 0 0 -45z"/>
 <path d="M2880 2916 l0 -46 46 0 45 0 -3 43 c-3 42 -3 42 -45 45 l-43 3 0 -45z"/>
 <path d="M3040 2916 l0 -46 46 0 45 0 -3 43 c-3 42 -3 42 -45 45 l-43 3 0 -45z"/>
 <path d="M3200 2916 l0 -46 46 0 45 0 -3 43 c-3 42 -3 42 -45 45 l-43 3 0 -45z"/>
 <path d="M3360 2915 l0 -45 45 0 45 0 0 45 0 45 -45 0 -45 0 0 -45z"/>
 <path d="M3520 2915 l0 -45 45 0 45 0 0 45 0 45 -45 0 -45 0 0 -45z"/>
 <path d="M3680 2915 l0 -45 40 0 40 0 0 45 0 45 -40 0 -40 0 0 -45z"/>
 <path d="M0 2755 l0 -45 40 0 40 0 0 45 0 45 -40 0 -40 0 0 -45z"/>
 <path d="M160 2755 l0 -45 40 0 40 0 0 45 0 45 -40 0 -40 0 0 -45z"/>
 <path d="M310 2755 l0 -45 45 0 45 0 0 45 0 45 -45 0 -45 0 0 -45z"/>
 <path d="M470 2755 l0 -45 45 0 45 0 0 45 0 45 -45 0 -45 0 0 -45z"/>
 <path d="M640 2755 l0 -45 40 0 40 0 0 45 0 45 -40 0 -40 0 0 -45z"/>
 <path d="M800 2755 l0 -45 40 0 40 0 0 45 0 45 -40 0 -40 0 0 -45z"/>
 <path d="M960 2755 l0 -45 40 0 40 0 0 45 0 45 -40 0 -40 0 0 -45z"/>
 <path d="M1120 2755 l0 -45 40 0 40 0 0 45 0 45 -40 0 -40 0 0 -45z"/>
 <path d="M1280 2755 l0 -45 40 0 40 0 0 45 0 45 -40 0 -40 0 0 -45z"/>
 <path d="M1440 2755 l0 -45 40 0 40 0 0 45 0 45 -40 0 -40 0 0 -45z"/>
 <path d="M1600 2755 l0 -45 40 0 40 0 0 45 0 45 -40 0 -40 0 0 -45z"/>
 <path d="M1760 2755 l0 -45 40 0 40 0 0 45 0 45 -40 0 -40 0 0 -45z"/>
 <path d="M1920 2755 l0 -45 45 0 45 0 0 45 0 45 -45 0 -45 0 0 -45z"/>
 <path d="M2080 2755 l0 -45 45 0 45 0 0 45 0 45 -45 0 -45 0 0 -45z"/>
 <path d="M2240 2755 l0 -45 45 0 45 0 0 45 0 45 -45 0 -45 0 0 -45z"/>
 <path d="M2400 2755 l0 -45 45 0 45 0 0 45 0 45 -45 0 -45 0 0 -45z"/>
 <path d="M2560 2755 l0 -45 45 0 45 0 0 45 0 45 -45 0 -45 0 0 -45z"/>
 <path d="M2720 2755 l0 -45 45 0 45 0 0 45 0 45 -45 0 -45 0 0 -45z"/>
 <path d="M2880 2755 l0 -45 45 0 45 0 0 45 0 45 -45 0 -45 0 0 -45z"/>
 <path d="M3040 2755 l0 -45 45 0 45 0 0 45 0 45 -45 0 -45 0 0 -45z"/>
 <path d="M3200 2755 l0 -45 45 0 45 0 0 45 0 45 -45 0 -45 0 0 -45z"/>
 <path d="M3360 2755 l0 -45 45 0 45 0 0 45 0 45 -45 0 -45 0 0 -45z"/>
 <path d="M3520 2755 l0 -45 45 0 45 0 0 45 0 45 -45 0 -45 0 0 -45z"/>
 <path d="M3680 2755 l0 -45 40 0 40 0 0 45 0 45 -40 0 -40 0 0 -45z"/>
 <path d="M0 2595 l0 -45 40 0 40 0 0 45 0 45 -40 0 -40 0 0 -45z"/>
 <path d="M160 2595 l0 -45 40 0 40 0 0 45 0 45 -40 0 -40 0 0 -45z"/>
 <path d="M317 2633 c-4 -3 -7 -24 -7 -45 l0 -38 45 0 45 0 0 45 0 45 -38 0 c-21 0 -42 -3 -45 -7z"/>
 <path d="M470 2595 l0 -45 45 0 45 0 0 45 0 45 -45 0 -45 0 0 -45z"/>
 <path d="M640 2595 l0 -45 40 0 40 0 0 45 0 45 -40 0 -40 0 0 -45z"/>
 <path d="M800 2595 l0 -45 40 0 40 0 0 45 0 45 -40 0 -40 0 0 -45z"/>
 <path d="M960 2595 l0 -45 40 0 40 0 0 45 0 45 -40 0 -40 0 0 -45z"/>
 <path d="M1120 2595 l0 -45 40 0 40 0 0 45 0 45 -40 0 -40 0 0 -45z"/>
 <path d="M1280 2595 l0 -45 40 0 40 0 0 45 0 45 -40 0 -40 0 0 -45z"/>
 <path d="M1440 2595 l0 -45 40 0 40 0 0 45 0 45 -40 0 -40 0 0 -45z"/>
 <path d="M1600 2595 l0 -45 40 0 40 0 0 45 0 45 -40 0 -40 0 0 -45z"/>
 <path d="M1760 2595 l0 -45 40 0 40 0 0 45 0 45 -40 0 -40 0 0 -45z"/>
 <path d="M1920 2596 l0 -46 46 0 45 0 -3 43 c-3 42 -3 42 -45 45 l-43 3 0 -45z"/>
 <path d="M2080 2596 l0 -46 46 0 45 0 -3 43 c-3 42 -3 42 -45 45 l-43 3 0 -45z"/>
 <path d="M2240 2596 l0 -46 46 0 45 0 -3 43 c-3 42 -3 42 -45 45 l-43 3 0 -45z"/>
 <path d="M2400 2595 l0 -45 45 0 45 0 0 45 0 45 -45 0 -45 0 0 -45z"/>
 <path d="M2560 2595 l0 -45 45 0 45 0 0 45 0 45 -45 0 -45 0 0 -45z"/>
 <path d="M2720 2595 l0 -45 45 0 45 0 0 45 0 45 -45 0 -45 0 0 -45z"/>
 <path d="M2880 2596 l0 -46 46 0 45 0 -3 43 c-3 42 -3 42 -45 45 l-43 3 0 -45z"/>
 <path d="M3040 2596 l0 -46 46 0 45 0 -3 43 c-3 42 -3 42 -45 45 l-43 3 0 -45z"/>
 <path d="M3200 2596 l0 -46 46 0 45 0 -3 43 c-3 42 -3 42 -45 45 l-43 3 0 -45z"/>
 <path d="M3360 2595 l0 -45 45 0 45 0 0 45 0 45 -45 0 -45 0 0 -45z"/>
 <path d="M3520 2595 l0 -45 45 0 45 0 0 45 0 45 -45 0 -45 0 0 -45z"/>
 <path d="M3680 2595 l0 -45 40 0 40 0 0 45 0 45 -40 0 -40 0 0 -45z"/>
 <path d="M0 2435 l0 -45 40 0 40 0 0 45 0 45 -40 0 -40 0 0 -45z"/>
 <path d="M160 2435 l0 -45 40 0 40 0 0 45 0 45 -40 0 -40 0 0 -45z"/>
 <path d="M317 2473 c-4 -3 -7 -24 -7 -45 l0 -38 45 0 45 0 0 45 0 45 -38 0 c-21 0 -42 -3 -45 -7z"/>
 <path d="M470 2435 l0 -45 45 0 45 0 0 45 0 45 -45 0 -45 0 0 -45z"/>
 <path d="M640 2435 l0 -45 40 0 40 0 0 45 0 45 -40 0 -40 0 0 -45z"/>
 <path d="M800 2435 l0 -45 40 0 40 0 0 45 0 45 -40 0 -40 0 0 -45z"/>
 <path d="M960 2435 l0 -45 40 0 40 0 0 45 0 45 -40 0 -40 0 0 -45z"/>
 <path d="M1120 2435 l0 -45 40 0 40 0 0 45 0 45 -40 0 -40 0 0 -45z"/>
 <path d="M1280 2435 l0 -45 40 0 40 0 0 45 0 45 -40 0 -40 0 0 -45z"/>
 <path d="M1440 2435 l0 -45 40 0 40 0 0 45 0 45 -40 0 -40 0 0 -45z"/>
 <path d="M1600 2435 l0 -45 40 0 40 0 0 45 0 45 -40 0 -40 0 0 -45z"/>
 <path d="M1760 2435 l0 -45 40 0 40 0 0 45 0 45 -40 0 -40 0 0 -45z"/>
 <path d="M1920 2436 l0 -46 46 0 45 0 -3 43 c-3 42 -3 42 -45 45 l-43 3 0 -45z"/>
 <path d="M2080 2436 l0 -46 46 0 45 0 -3 43 c-3 42 -3 42 -45 45 l-43 3 0 -45z"/>
 <path d="M2240 2436 l0 -46 46 0 45 0 -3 43 c-3 42 -3 42 -45 45 l-43 3 0 -45z"/>
 <path d="M2400 2435 l0 -45 45 0 45 0 0 45 0 45 -45 0 -45 0 0 -45z"/>
 <path d="M2560 2435 l0 -45 45 0 45 0 0 45 0 45 -45 0 -45 0 0 -45z"/>
 <path d="M2720 2435 l0 -45 45 0 45 0 0 45 0 45 -45 0 -45 0 0 -45z"/>
 <path d="M2880 2436 l0 -46 46 0 45 0 -3 43 c-3 42 -3 42 -45 45 l-43 3 0 -45z"/>
 <path d="M3040 2436 l0 -46 46 0 45 0 -3 43 c-3 42 -3 42 -45 45 l-43 3 0 -45z"/>
 <path d="M3200 2436 l0 -46 46 0 45 0 -3 43 c-3 42 -3 42 -45 45 l-43 3 0 -45z"/>
 <path d="M3360 2435 l0 -45 45 0 45 0 0 45 0 45 -45 0 -45 0 0 -45z"/>
 <path d="M3520 2435 l0 -45 45 0 45 0 0 45 0 45 -45 0 -45 0 0 -45z"/>
 <path d="M3680 2435 l0 -45 40 0 40 0 0 45 0 45 -40 0 -40 0 0 -45z"/>
 <path d="M0 2275 l0 -45 40 0 40 0 0 45 0 45 -40 0 -40 0 0 -45z"/>
 <path d="M160 2275 l0 -45 40 0 40 0 0 45 0 45 -40 0 -40 0 0 -45z"/>
 <path d="M310 2275 l0 -45 45 0 45 0 0 45 0 45 -45 0 -45 0 0 -45z"/>
 <path d="M470 2275 l0 -45 45 0 45 0 0 45 0 45 -45 0 -45 0 0 -45z"/>
 <path d="M640 2275 l0 -45 40 0 40 0 0 45 0 45 -40 0 -40 0 0 -45z"/>
 <path d="M800 2275 l0 -45 40 0 40 0 0 45 0 45 -40 0 -40 0 0 -45z"/>
 <path d="M960 2275 l0 -45 40 0 40 0 0 45 0 45 -40 0 -40 0 0 -45z"/>
 <path d="M1120 2275 l0 -45 40 0 40 0 0 45 0 45 -40 0 -40 0 0 -45z"/>
 <path d="M1280 2275 l0 -45 40 0 40 0 0 45 0 45 -40 0 -40 0 0 -45z"/>
 <path d="M1440 2275 l0 -45 40 0 40 0 0 45 0 45 -40 0 -40 0 0 -45z"/>
 <path d="M1600 2275 l0 -45 40 0 40 0 0 45 0 45 -40 0 -40 0 0 -45z"/>
 <path d="M1760 2275 l0 -45 40 0 40 0 0 45 0 45 -40 0 -40 0 0 -45z"/>
 <path d="M1920 2275 l0 -45 45 0 45 0 0 45 0 45 -45 0 -45 0 0 -45z"/>
 <path d="M2080 2275 l0 -45 45 0 45 0 0 45 0 45 -45 0 -45 0 0 -45z"/>
 <path d="M2240 2275 l0 -45 45 0 45 0 0 45 0 45 -45 0 -45 0 0 -45z"/>
 <path d="M2400 2275 l0 -45 45 0 45 0 0 45 0 45 -45 0 -45 0 0 -45z"/>
 <path d="M2560 2275 l0 -45 45 0 45 0 0 45 0 45 -45 0 -45 0 0 -45z"/>
 <path d="M2720 2275 l0 -45 45 0 45 0 0 45 0 45 -45 0 -45 0 0 -45z"/>
 <path d="M2880 2275 l0 -45 45 0 45 0 0 45 0 45 -45 0 -45 0 0 -45z"/>
 <path d="M3040 2275 l0 -45 45 0 45 0 0 45 0 45 -45 0 -45 0 0 -45z"/>
 <path d="M3200 2275 l0 -45 45 0 45 0 0 45 0 45 -45 0 -45 0 0 -45z"/>
 <path d="M3360 2275 l0 -45 45 0 45 0 0 45 0 45 -45 0 -45 0 0 -45z"/>
 <path d="M3520 2275 l0 -45 45 0 45 0 0 45 0 45 -45 0 -45 0 0 -45z"/>
 <path d="M3680 2275 l0 -45 40 0 40 0 0 45 0 45 -40 0 -40 0 0 -45z"/>
 <path d="M0 2115 l0 -45 40 0 40 0 0 45 0 45 -40 0 -40 0 0 -45z"/>
 <path d="M160 2115 l0 -45 40 0 40 0 0 45 0 45 -40 0 -40 0 0 -45z"/>
 <path d="M310 2115 l0 -45 45 0 45 0 0 45 0 45 -45 0 -45 0 0 -45z"/>
 <path d="M470 2115 l0 -45 45 0 45 0 0 45 0 45 -45 0 -45 0 0 -45z"/>
 <path d="M640 2115 l0 -45 40 0 40 0 0 45 0 45 -40 0 -40 0 0 -45z"/>
 <path d="M800 2115 l0 -45 40 0 40 0 0 45 0 45 -40 0 -40 0 0 -45z"/>
 <path d="M960 2115 l0 -45 40 0 40 0 0 45 0 45 -40 0 -40 0 0 -45z"/>
 <path d="M1120 2115 l0 -45 40 0 40 0 0 45 0 45 -40 0 -40 0 0 -45z"/>
 <path d="M1280 2115 l0 -45 40 0 40 0 0 45 0 45 -40 0 -40 0 0 -45z"/>
 <path d="M1440 2115 l0 -45 40 0 40 0 0 45 0 45 -40 0 -40 0 0 -45z"/>
 <path d="M1600 2115 l0 -45 40 0 40 0 0 45 0 45 -40 0 -40 0 0 -45z"/>
 <path d="M1760 2115 l0 -45 40 0 40 0 0 45 0 45 -40 0 -40 0 0 -45z"/>
 <path d="M1920 2115 l0 -45 45 0 45 0 0 45 0 45 -45 0 -45 0 0 -45z"/>
 <path d="M2080 2115 l0 -45 45 0 45 0 0 45 0 45 -45 0 -45 0 0 -45z"/>
 <path d="M2240 2115 l0 -45 45 0 45 0 0 45 0 45 -45 0 -45 0 0 -45z"/>
 <path d="M2400 2115 l0 -45 45 0 45 0 0 45 0 45 -45 0 -45 0 0 -45z"/>
 <path d="M2560 2115 l0 -45 45 0 45 0 0 45 0 45 -45 0 -45 0 0 -45z"/>
 <path d="M2720 2115 l0 -45 45 0 45 0 0 45 0 45 -45 0 -45 0 0 -45z"/>
 <path d="M2880 2115 l0 -45 45 0 45 0 0 45 0 45 -45 0 -45 0 0 -45z"/>
 <path d="M3040 2115 l0 -45 45 0 45 0 0 45 0 45 -45 0 -45 0 0 -45z"/>
 <path d="M3200 2115 l0 -45 45 0 45 0 0 45 0 45 -45 0 -45 0 0 -45z"/>
 <path d="M3360 2115 l0 -45 45 0 45 0 0 45 0 45 -45 0 -45 0 0 -45z"/>
 <path d="M3520 2115 l0 -45 45 0 45 0 0 45 0 45 -45 0 -45 0 0 -45z"/>
 <path d="M3680 2115 l0 -45 40 0 40 0 0 45 0 45 -40 0 -40 0 0 -45z"/>
 <path d="M0 1955 l0 -45 40 0 40 0 0 45 0 45 -40 0 -40 0 0 -45z"/>
 <path d="M160 1955 l0 -45 40 0 40 0 0 45 0 45 -40 0 -40 0 0 -45z"/>
 <path d="M310 1955 l0 -45 45 0 45 0 0 45 0 45 -45 0 -45 0 0 -45z"/>
 <path d="M470 1955 l0 -45 45 0 45 0 0 45 0 45 -45 0 -45 0 0 -45z"/>
 <path d="M640 1955 l0 -45 40 0 40 0 0 45 0 45 -40 0 -40 0 0 -45z"/>
 <path d="M800 1955 l0 -45 40 0 40 0 0 45 0 45 -40 0 -40 0 0 -45z"/>
 <path d="M960 1955 l0 -45 40 0 40 0 0 45 0 45 -40 0 -40 0 0 -45z"/>
 <path d="M1120 1955 l0 -45 40 0 40 0 0 45 0 45 -40 0 -40 0 0 -45z"/>
 <path d="M1280 1955 l0 -45 40 0 40 0 0 45 0 45 -40 0 -40 0 0 -45z"/>
 <path d="M1440 1955 l0 -45 40 0 40 0 0 45 0 45 -40 0 -40 0 0 -45z"/>
 <path d="M1600 1955 l0 -45 40 0 40 0 0 45 0 45 -40 0 -40 0 0 -45z"/>
 <path d="M1760 1955 l0 -45 40 0 40 0 0 45 0 45 -40 0 -40 0 0 -45z"/>
 <path d="M1920 1955 l0 -45 45 0 45 0 0 45 0 45 -45 0 -45 0 0 -45z"/>
 <path d="M2080 1955 l0 -45 45 0 45 0 0 45 0 45 -45 0 -45 0 0 -45z"/>
 <path d="M2240 1955 l0 -45 45 0 45 0 0 45 0 45 -45 0 -45 0 0 -45z"/>
 <path d="M2400 1955 l0 -45 45 0 45 0 0 45 0 45 -45 0 -45 0 0 -45z"/>
 <path d="M2560 1955 l0 -45 45 0 45 0 0 45 0 45 -45 0 -45 0 0 -45z"/>
 <path d="M2720 1955 l0 -45 45 0 45 0 0 45 0 45 -45 0 -45 0 0 -45z"/>
 <path d="M2880 1955 l0 -45 45 0 45 0 0 45 0 45 -45 0 -45 0 0 -45z"/>
 <path d="M3040 1955 l0 -45 45 0 45 0 0 45 0 45 -45 0 -45 0 0 -45z"/>
 <path d="M3200 1955 l0 -45 45 0 45 0 0 45 0 45 -45 0 -45 0 0 -45z"/>
 <path d="M3360 1955 l0 -45 45 0 45 0 0 45 0 45 -45 0 -45 0 0 -45z"/>
 <path d="M3520 1955 l0 -45 45 0 45 0 0 45 0 45 -45 0 -45 0 0 -45z"/>
 <path d="M3680 1955 l0 -45 40 0 40 0 0 45 0 45 -40 0 -40 0 0 -45z"/>
 <path d="M0 1795 l0 -45 40 0 40 0 0 45 0 45 -40 0 -40 0 0 -45z"/>
 <path d="M160 1795 l0 -45 40 0 40 0 0 45 0 45 -40 0 -40 0 0 -45z"/>
 <path d="M310 1795 l0 -45 45 0 45 0 0 45 0 45 -45 0 -45 0 0 -45z"/>
 <path d="M470 1795 l0 -45 45 0 45 0 0 45 0 45 -45 0 -45 0 0 -45z"/>
 <path d="M640 1795 l0 -45 40 0 40 0 0 45 0 45 -40 0 -40 0 0 -45z"/>
 <path d="M800 1795 l0 -45 40 0 40 0 0 45 0 45 -40 0 -40 0 0 -45z"/>
 <path d="M960 1795 l0 -45 40 0 40 0 0 45 0 45 -40 0 -40 0 0 -45z"/>
 <path d="M1120 1795 l0 -45 40 0 40 0 0 45 0 45 -40 0 -40 0 0 -45z"/>
 <path d="M1280 1795 l0 -45 40 0 40 0 0 45 0 45 -40 0 -40 0 0 -45z"/>
 <path d="M1440 1795 l0 -45 40 0 40 0 0 45 0 45 -40 0 -40 0 0 -45z"/>
 <path d="M1600 1795 l0 -45 40 0 40 0 0 45 0 45 -40 0 -40 0 0 -45z"/>
 <path d="M1760 1795 l0 -45 40 0 40 0 0 45 0 45 -40 0 -40 0 0 -45z"/>
 <path d="M1920 1795 l0 -45 45 0 45 0 0 45 0 45 -45 0 -45 0 0 -45z"/>
 <path d="M2080 1795 l0 -45 45 0 45 0 0 45 0 45 -45 0 -45 0 0 -45z"/>
 <path d="M2240 1795 l0 -45 45 0 45 0 0 45 0 45 -45 0 -45 0 0 -45z"/>
 <path d="M2400 1795 l0 -45 45 0 45 0 0 45 0 45 -45 0 -45 0 0 -45z"/>
 <path d="M2560 1795 l0 -45 45 0 45 0 0 45 0 45 -45 0 -45 0 0 -45z"/>
 <path d="M2720 1795 l0 -45 45 0 45 0 0 45 0 45 -45 0 -45 0 0 -45z"/>
 <path d="M2880 1795 l0 -45 45 0 45 0 0 45 0 45 -45 0 -45 0 0 -45z"/>
 <path d="M3040 1795 l0 -45 45 0 45 0 0 45 0 45 -45 0 -45 0 0 -45z"/>
 <path d="M3200 1795 l0 -45 45 0 45 0 0 45 0 45 -45 0 -45 0 0 -45z"/>
 <path d="M3360 1795 l0 -45 45 0 45 0 0 45 0 45 -45 0 -45 0 0 -45z"/>
 <path d="M3520 1795 l0 -45 45 0 45 0 0 45 0 45 -45 0 -45 0 0 -45z"/>
 <path d="M3680 1795 l0 -45 40 0 40 0 0 45 0 45 -40 0 -40 0 0 -45z"/>
 <path d="M0 1635 l0 -45 40 0 40 0 0 45 0 45 -40 0 -40 0 0 -45z"/>
 <path d="M160 1635 l0 -45 40 0 40 0 0 45 0 45 -40 0 -40 0 0 -45z"/>
 <path d="M310 1635 l0 -45 45 0 45 0 0 45 0 45 -45 0 -45 0 0 -45z"/>
 <path d="M470 1635 l0 -45 45 0 45 0 0 45 0 45 -45 0 -45 0 0 -45z"/>
 <path d="M640 1635 l0 -45 40 0 40 0 0 45 0 45 -40 0 -40 0 0 -45z"/>
 <path d="M800 1635 l0 -45 40 0 40 0 0 45 0 45 -40 0 -40 0 0 -45z"/>
 <path d="M960 1635 l0 -45 40 0 40 0 0 45 0 45 -40 0 -40 0 0 -45z"/>
 <path d="M1120 1635 l0 -45 40 0 40 0 0 45 0 45 -40 0 -40 0 0 -45z"/>
 <path d="M1280 1635 l0 -45 40 0 40 0 0 45 0 45 -40 0 -40 0 0 -45z"/>
 <path d="M1440 1635 l0 -45 40 0 40 0 0 45 0 45 -40 0 -40 0 0 -45z"/>
 <path d="M1600 1635 l0 -45 40 0 40 0 0 45 0 45 -40 0 -40 0 0 -45z"/>
 <path d="M1760 1635 l0 -45 40 0 40 0 0 45 0 45 -40 0 -40 0 0 -45z"/>
 <path d="M1920 1635 l0 -45 45 0 45 0 0 45 0 45 -45 0 -45 0 0 -45z"/>
 <path d="M2080 1635 l0 -45 45 0 45 0 0 45 0 45 -45 0 -45 0 0 -45z"/>
 <path d="M2240 1635 l0 -45 45 0 45 0 0 45 0 45 -45 0 -45 0 0 -45z"/>
 <path d="M2400 1635 l0 -45 45 0 45 0 0 45 0 45 -45 0 -45 0 0 -45z"/>
 <path d="M2560 1635 l0 -45 45 0 45 0 0 45 0 45 -45 0 -45 0 0 -45z"/>
 <path d="M2720 1635 l0 -45 45 0 45 0 0 45 0 45 -45 0 -45 0 0 -45z"/>
 <path d="M2880 1635 l0 -45 45 0 45 0 0 45 0 45 -45 0 -45 0 0 -45z"/>
 <path d="M3040 1635 l0 -45 45 0 45 0 0 45 0 45 -45 0 -45 0 0 -45z"/>
 <path d="M3200 1635 l0 -45 45 0 45 0 0 45 0 45 -45 0 -45 0 0 -45z"/>
 <path d="M3360 1635 l0 -45 45 0 45 0 0 45 0 45 -45 0 -45 0 0 -45z"/>
 <path d="M3520 1635 l0 -45 45 0 45 0 0 45 0 45 -45 0 -45 0 0 -45z"/>
 <path d="M3680 1635 l0 -45 40 0 40 0 0 45 0 45 -40 0 -40 0 0 -45z"/>
 <path d="M0 1475 l0 -45 40 0 40 0 0 45 0 45 -40 0 -40 0 0 -45z"/>
 <path d="M160 1475 l0 -45 40 0 40 0 0 45 0 45 -40 0 -40 0 0 -45z"/>
 <path d="M310 1475 l0 -45 45 0 45 0 0 45 0 45 -45 0 -45 0 0 -45z"/>
 <path d="M470 1475 l0 -45 45 0 45 0 0 45 0 45 -45 0 -45 0 0 -45z"/>
 <path d="M640 1475 l0 -45 40 0 40 0 0 45 0 45 -40 0 -40 0 0 -45z"/>
 <path d="M800 1475 l0 -45 40 0 40 0 0 45 0 45 -40 0 -40 0 0 -45z"/>
 <path d="M960 1475 l0 -45 40 0 40 0 0 45 0 45 -40 0 -40 0 0 -45z"/>
 <path d="M1120 1475 l0 -45 40 0 40 0 0 45 0 45 -40 0 -40 0 0 -45z"/>
 <path d="M1280 1475 l0 -45 40 0 40 0 0 45 0 45 -40 0 -40 0 0 -45z"/>
 <path d="M1440 1475 l0 -45 40 0 40 0 0 45 0 45 -40 0 -40 0 0 -45z"/>
 <path d="M1600 1475 l0 -45 40 0 40 0 0 45 0 45 -40 0 -40 0 0 -45z"/>
 <path d="M1760 1475 l0 -45 40 0 40 0 0 45 0 45 -40 0 -40 0 0 -45z"/>
 <path d="M1920 1475 l0 -45 45 0 45 0 0 45 0 45 -45 0 -45 0 0 -45z"/>
 <path d="M2080 1475 l0 -45 45 0 45 0 0 45 0 45 -45 0 -45 0 0 -45z"/>
 <path d="M2240 1475 l0 -45 45 0 45 0 0 45 0 45 -45 0 -45 0 0 -45z"/>
 <path d="M2400 1475 l0 -45 45 0 45 0 0 45 0 45 -45 0 -45 0 0 -45z"/>
 <path d="M2560 1475 l0 -45 45 0 45 0 0 45 0 45 -45 0 -45 0 0 -45z"/>
 <path d="M2720 1475 l0 -45 45 0 45 0 0 45 0 45 -45 0 -45 0 0 -45z"/>
 <path d="M2880 1475 l0 -45 45 0 45 0 0 45 0 45 -45 0 -45 0 0 -45z"/>
 <path d="M3040 1475 l0 -45 45 0 45 0 0 45 0 45 -45 0 -45 0 0 -45z"/>
 <path d="M3200 1475 l0 -45 45 0 45 0 0 45 0 45 -45 0 -45 0 0 -45z"/>
 <path d="M3360 1475 l0 -45 45 0 45 0 0 45 0 45 -45 0 -45 0 0 -45z"/>
 <path d="M3520 1475 l0 -45 45 0 45 0 0 45 0 45 -45 0 -45 0 0 -45z"/>
 <path d="M3680 1475 l0 -45 40 0 40 0 0 45 0 45 -40 0 -40 0 0 -45z"/>
 <path d="M0 1315 l0 -45 40 0 40 0 0 45 0 45 -40 0 -40 0 0 -45z"/>
 <path d="M160 1315 l0 -45 40 0 40 0 0 45 0 45 -40 0 -40 0 0 -45z"/>
 <path d="M310 1315 l0 -45 45 0 45 0 0 45 0 45 -45 0 -45 0 0 -45z"/>
 <path d="M470 1315 l0 -45 45 0 45 0 0 45 0 45 -45 0 -45 0 0 -45z"/>
 <path d="M640 1315 l0 -45 40 0 40 0 0 45 0 45 -40 0 -40 0 0 -45z"/>
 <path d="M800 1315 l0 -45 40 0 40 0 0 45 0 45 -40 0 -40 0 0 -45z"/>
 <path d="M960 1315 l0 -45 40 0 40 0 0 45 0 45 -40 0 -40 0 0 -45z"/>
 <path d="M1120 1315 l0 -45 40 0 40 0 0 45 0 45 -40 0 -40 0 0 -45z"/>
 <path d="M1280 1315 l0 -45 40 0 40 0 0 45 0 45 -40 0 -40 0 0 -45z"/>
 <path d="M1440 1315 l0 -45 40 0 40 0 0 45 0 45 -40 0 -40 0 0 -45z"/>
 <path d="M1600 1315 l0 -45 40 0 40 0 0 45 0 45 -40 0 -40 0 0 -45z"/>
 <path d="M1760 1315 l0 -45 40 0 40 0 0 45 0 45 -40 0 -40 0 0 -45z"/>
 <path d="M1920 1315 l0 -45 45 0 45 0 0 45 0 45 -45 0 -45 0 0 -45z"/>
 <path d="M2080 1315 l0 -45 45 0 45 0 0 45 0 45 -45 0 -45 0 0 -45z"/>
 <path d="M2240 1315 l0 -45 45 0 45 0 0 45 0 45 -45 0 -45 0 0 -45z"/>
 <path d="M2400 1315 l0 -45 45 0 45 0 0 45 0 45 -45 0 -45 0 0 -45z"/>
 <path d="M2560 1315 l0 -45 45 0 45 0 0 45 0 45 -45 0 -45 0 0 -45z"/>
 <path d="M2720 1315 l0 -45 45 0 45 0 0 45 0 45 -45 0 -45 0 0 -45z"/>
 <path d="M2880 1315 l0 -45 45 0 45 0 0 45 0 45 -45 0 -45 0 0 -45z"/>
 <path d="M3040 1315 l0 -45 45 0 45 0 0 45 0 45 -45 0 -45 0 0 -45z"/>
 <path d="M3200 1315 l0 -45 45 0 45 0 0 45 0 45 -45 0 -45 0 0 -45z"/>
 <path d="M3360 1315 l0 -45 45 0 45 0 0 45 0 45 -45 0 -45 0 0 -45z"/>
 <path d="M3520 1315 l0 -45 45 0 45 0 0 45 0 45 -45 0 -45 0 0 -45z"/>
 <path d="M3680 1315 l0 -45 40 0 40 0 0 45 0 45 -40 0 -40 0 0 -45z"/>
 <path d="M0 1155 l0 -45 40 0 40 0 0 45 0 45 -40 0 -40 0 0 -45z"/>
 <path d="M160 1155 l0 -45 40 0 40 0 0 45 0 45 -40 0 -40 0 0 -45z"/>
 <path d="M312 1158 c3 -43 3 -43 46 -46 l42 -3 0 45 0 46 -46 0 -45 0 3 -42z"/>
 <path d="M470 1155 l0 -45 45 0 45 0 0 45 0 45 -45 0 -45 0 0 -45z"/>
 <path d="M640 1155 l0 -45 40 0 40 0 0 45 0 45 -40 0 -40 0 0 -45z"/>
 <path d="M800 1155 l0 -45 40 0 40 0 0 45 0 45 -40 0 -40 0 0 -45z"/>
 <path d="M960 1155 l0 -45 40 0 40 0 0 45 0 45 -40 0 -40 0 0 -45z"/>
 <path d="M1120 1155 l0 -45 40 0 40 0 0 45 0 45 -40 0 -40 0 0 -45z"/>
 <path d="M1280 1155 l0 -45 40 0 40 0 0 45 0 45 -40 0 -40 0 0 -45z"/>
 <path d="M1440 1155 l0 -45 40 0 40 0 0 45 0 45 -40 0 -40 0 0 -45z"/>
 <path d="M1600 1155 l0 -45 40 0 40 0 0 45 0 45 -40 0 -40 0 0 -45z"/>
 <path d="M1760 1155 l0 -45 40 0 40 0 0 45 0 45 -40 0 -40 0 0 -45z"/>
 <path d="M1920 1154 l0 -45 43 3 c42 3 42 3 45 46 l3 42 -45 0 -46 0 0 -46z"/>
 <path d="M2080 1154 l0 -45 43 3 c42 3 42 3 45 46 l3 42 -45 0 -46 0 0 -46z"/>
 <path d="M2240 1154 l0 -45 43 3 c42 3 42 3 45 46 l3 42 -45 0 -46 0 0 -46z"/>
 <path d="M2400 1155 l0 -45 45 0 45 0 0 45 0 45 -45 0 -45 0 0 -45z"/>
 <path d="M2560 1155 l0 -45 45 0 45 0 0 45 0 45 -45 0 -45 0 0 -45z"/>
 <path d="M2720 1155 l0 -45 45 0 45 0 0 45 0 45 -45 0 -45 0 0 -45z"/>
 <path d="M2880 1154 l0 -45 43 3 c42 3 42 3 45 46 l3 42 -45 0 -46 0 0 -46z"/>
 <path d="M3040 1154 l0 -45 43 3 c42 3 42 3 45 46 l3 42 -45 0 -46 0 0 -46z"/>
 <path d="M3200 1154 l0 -45 43 3 c42 3 42 3 45 46 l3 42 -45 0 -46 0 0 -46z"/>
 <path d="M3360 1155 l0 -45 45 0 45 0 0 45 0 45 -45 0 -45 0 0 -45z"/>
 <path d="M3520 1155 l0 -45 45 0 45 0 0 45 0 45 -45 0 -45 0 0 -45z"/>
 <path d="M3680 1155 l0 -45 40 0 40 0 0 45 0 45 -40 0 -40 0 0 -45z"/>
 <path d="M0 995 l0 -45 40 0 40 0 0 45 0 45 -40 0 -40 0 0 -45z"/>
 <path d="M160 995 l0 -45 40 0 40 0 0 45 0 45 -40 0 -40 0 0 -45z"/>
 <path d="M312 998 c3 -43 3 -43 46 -46 l42 -3 0 45 0 46 -46 0 -45 0 3 -42z"/>
 <path d="M470 995 l0 -45 45 0 45 0 0 45 0 45 -45 0 -45 0 0 -45z"/>
 <path d="M640 995 l0 -45 40 0 40 0 0 45 0 45 -40 0 -40 0 0 -45z"/>
 <path d="M800 995 l0 -45 40 0 40 0 0 45 0 45 -40 0 -40 0 0 -45z"/>
 <path d="M960 995 l0 -45 40 0 40 0 0 45 0 45 -40 0 -40 0 0 -45z"/>
 <path d="M1120 995 l0 -45 40 0 40 0 0 45 0 45 -40 0 -40 0 0 -45z"/>
 <path d="M1280 995 l0 -45 40 0 40 0 0 45 0 45 -40 0 -40 0 0 -45z"/>
 <path d="M1440 995 l0 -45 40 0 40 0 0 45 0 45 -40 0 -40 0 0 -45z"/>
 <path d="M1600 995 l0 -45 40 0 40 0 0 45 0 45 -40 0 -40 0 0 -45z"/>
 <path d="M1760 995 l0 -45 40 0 40 0 0 45 0 45 -40 0 -40 0 0 -45z"/>
 <path d="M1920 994 l0 -45 43 3 c42 3 42 3 45 46 l3 42 -45 0 -46 0 0 -46z"/>
 <path d="M2080 994 l0 -45 43 3 c42 3 42 3 45 46 l3 42 -45 0 -46 0 0 -46z"/>
 <path d="M2240 994 l0 -45 43 3 c42 3 42 3 45 46 l3 42 -45 0 -46 0 0 -46z"/>
 <path d="M2400 995 l0 -45 45 0 45 0 0 45 0 45 -45 0 -45 0 0 -45z"/>
 <path d="M2560 995 l0 -45 45 0 45 0 0 45 0 45 -45 0 -45 0 0 -45z"/>
 <path d="M2720 995 l0 -45 45 0 45 0 0 45 0 45 -45 0 -45 0 0 -45z"/>
 <path d="M2880 994 l0 -45 43 3 c42 3 42 3 45 46 l3 42 -45 0 -46 0 0 -46z"/>
 <path d="M3040 994 l0 -45 43 3 c42 3 42 3 45 46 l3 42 -45 0 -46 0 0 -46z"/>
 <path d="M3200 994 l0 -45 43 3 c42 3 42 3 45 46 l3 42 -45 0 -46 0 0 -46z"/>
 <path d="M3360 995 l0 -45 45 0 45 0 0 45 0 45 -45 0 -45 0 0 -45z"/>
 <path d="M3520 995 l0 -45 45 0 45 0 0 45 0 45 -45 0 -45 0 0 -45z"/>
 <path d="M3680 995 l0 -45 40 0 40 0 0 45 0 45 -40 0 -40 0 0 -45z"/>
 <path d="M0 835 l0 -45 40 0 40 0 0 45 0 45 -40 0 -40 0 0 -45z"/>
 <path d="M160 835 l0 -45 40 0 40 0 0 45 0 45 -40 0 -40 0 0 -45z"/>
 <path d="M312 838 c3 -43 3 -43 46 -46 l42 -3 0 45 0 46 -46 0 -45 0 3 -42z"/>
 <path d="M470 835 l0 -45 45 0 45 0 0 45 0 45 -45 0 -45 0 0 -45z"/>
 <path d="M640 835 l0 -45 40 0 40 0 0 45 0 45 -40 0 -40 0 0 -45z"/>
 <path d="M800 835 l0 -45 40 0 40 0 0 45 0 45 -40 0 -40 0 0 -45z"/>
 <path d="M960 835 l0 -45 40 0 40 0 0 45 0 45 -40 0 -40 0 0 -45z"/>
 <path d="M1120 835 l0 -45 40 0 40 0 0 45 0 45 -40 0 -40 0 0 -45z"/>
 <path d="M1280 835 l0 -45 40 0 40 0 0 45 0 45 -40 0 -40 0 0 -45z"/>
 <path d="M1440 835 l0 -45 40 0 40 0 0 45 0 45 -40 0 -40 0 0 -45z"/>
 <path d="M1600 835 l0 -45 40 0 40 0 0 45 0 45 -40 0 -40 0 0 -45z"/>
 <path d="M1760 835 l0 -45 40 0 40 0 0 45 0 45 -40 0 -40 0 0 -45z"/>
 <path d="M1920 834 l0 -45 43 3 c42 3 42 3 45 46 l3 42 -45 0 -46 0 0 -46z"/>
 <path d="M2080 834 l0 -45 43 3 c42 3 42 3 45 46 l3 42 -45 0 -46 0 0 -46z"/>
 <path d="M2240 834 l0 -45 43 3 c42 3 42 3 45 46 l3 42 -45 0 -46 0 0 -46z"/>
 <path d="M2400 835 l0 -45 45 0 45 0 0 45 0 45 -45 0 -45 0 0 -45z"/>
 <path d="M2560 835 l0 -45 45 0 45 0 0 45 0 45 -45 0 -45 0 0 -45z"/>
 <path d="M2720 835 l0 -45 45 0 45 0 0 45 0 45 -45 0 -45 0 0 -45z"/>
 <path d="M2880 834 l0 -45 43 3 c42 3 42 3 45 46 l3 42 -45 0 -46 0 0 -46z"/>
 <path d="M3040 834 l0 -45 43 3 c42 3 42 3 45 46 l3 42 -45 0 -46 0 0 -46z"/>
 <path d="M3200 834 l0 -45 43 3 c42 3 42 3 45 46 l3 42 -45 0 -46 0 0 -46z"/>
 <path d="M3360 835 l0 -45 45 0 45 0 0 45 0 45 -45 0 -45 0 0 -45z"/>
 <path d="M3520 835 l0 -45 45 0 45 0 0 45 0 45 -45 0 -45 0 0 -45z"/>
 <path d="M3680 835 l0 -45 40 0 40 0 0 45 0 45 -40 0 -40 0 0 -45z"/>
 <path d="M0 675 l0 -45 40 0 40 0 0 45 0 45 -40 0 -40 0 0 -45z"/>
 <path d="M160 675 l0 -45 40 0 40 0 0 45 0 45 -40 0 -40 0 0 -45z"/>
 <path d="M312 678 c3 -43 3 -43 46 -46 l42 -3 0 45 0 46 -46 0 -45 0 3 -42z"/>
 <path d="M470 675 l0 -45 45 0 45 0 0 45 0 45 -45 0 -45 0 0 -45z"/>
 <path d="M640 675 l0 -45 40 0 40 0 0 45 0 45 -40 0 -40 0 0 -45z"/>
 <path d="M800 675 l0 -45 40 0 40 0 0 45 0 45 -40 0 -40 0 0 -45z"/>
 <path d="M960 675 l0 -45 40 0 40 0 0 45 0 45 -40 0 -40 0 0 -45z"/>
 <path d="M1120 675 l0 -45 40 0 40 0 0 45 0 45 -40 0 -40 0 0 -45z"/>
 <path d="M1280 675 l0 -45 40 0 40 0 0 45 0 45 -40 0 -40 0 0 -45z"/>
 <path d="M1440 675 l0 -45 40 0 40 0 0 45 0 45 -40 0 -40 0 0 -45z"/>
 <path d="M1600 675 l0 -45 40 0 40 0 0 45 0 45 -40 0 -40 0 0 -45z"/>
 <path d="M1760 675 l0 -45 40 0 40 0 0 45 0 45 -40 0 -40 0 0 -45z"/>
 <path d="M1920 674 l0 -45 43 3 c42 3 42 3 45 46 l3 42 -45 0 -46 0 0 -46z"/>
 <path d="M2080 674 l0 -45 43 3 c42 3 42 3 45 46 l3 42 -45 0 -46 0 0 -46z"/>
 <path d="M2240 674 l0 -45 43 3 c42 3 42 3 45 46 l3 42 -45 0 -46 0 0 -46z"/>
 <path d="M2400 675 l0 -45 45 0 45 0 0 45 0 45 -45 0 -45 0 0 -45z"/>
 <path d="M2560 675 l0 -45 45 0 45 0 0 45 0 45 -45 0 -45 0 0 -45z"/>
 <path d="M2720 675 l0 -45 45 0 45 0 0 45 0 45 -45 0 -45 0 0 -45z"/>
 <path d="M2880 674 l0 -45 43 3 c42 3 42 3 45 46 l3 42 -45 0 -46 0 0 -46z"/>
 <path d="M3040 674 l0 -45 43 3 c42 3 42 3 45 46 l3 42 -45 0 -46 0 0 -46z"/>
 <path d="M3200 674 l0 -45 43 3 c42 3 42 3 45 46 l3 42 -45 0 -46 0 0 -46z"/>
 <path d="M3360 675 l0 -45 45 0 45 0 0 45 0 45 -45 0 -45 0 0 -45z"/>
 <path d="M3520 675 l0 -45 45 0 45 0 0 45 0 45 -45 0 -45 0 0 -45z"/>
 <path d="M3680 675 l0 -45 40 0 40 0 0 45 0 45 -40 0 -40 0 0 -45z"/>
 <path d="M0 515 l0 -45 40 0 40 0 0 45 0 45 -40 0 -40 0 0 -45z"/>
 <path d="M160 515 l0 -45 40 0 40 0 0 45 0 45 -40 0 -40 0 0 -45z"/>
 <path d="M312 518 c3 -43 3 -43 46 -46 l42 -3 0 45 0 46 -46 0 -45 0 3 -42z"/>
 <path d="M470 515 l0 -45 45 0 45 0 0 45 0 45 -45 0 -45 0 0 -45z"/>
 <path d="M640 515 l0 -45 40 0 40 0 0 45 0 45 -40 0 -40 0 0 -45z"/>
 <path d="M800 515 l0 -45 40 0 40 0 0 45 0 45 -40 0 -40 0 0 -45z"/>
 <path d="M960 515 l0 -45 40 0 40 0 0 45 0 45 -40 0 -40 0 0 -45z"/>
 <path d="M1120 515 l0 -45 40 0 40 0 0 45 0 45 -40 0 -40 0 0 -45z"/>
 <path d="M1280 515 l0 -45 40 0 40 0 0 45 0 45 -40 0 -40 0 0 -45z"/>
 <path d="M1440 515 l0 -45 40 0 40 0 0 45 0 45 -40 0 -40 0 0 -45z"/>
 <path d="M1600 515 l0 -45 40 0 40 0 0 45 0 45 -40 0 -40 0 0 -45z"/>
 <path d="M1760 515 l0 -45 40 0 40 0 0 45 0 45 -40 0 -40 0 0 -45z"/>
 <path d="M1920 514 l0 -45 43 3 c42 3 42 3 45 46 l3 42 -45 0 -46 0 0 -46z"/>
 <path d="M2080 514 l0 -45 43 3 c42 3 42 3 45 46 l3 42 -45 0 -46 0 0 -46z"/>
 <path d="M2240 514 l0 -45 43 3 c42 3 42 3 45 46 l3 42 -45 0 -46 0 0 -46z"/>
 <path d="M2400 515 l0 -45 45 0 45 0 0 45 0 45 -45 0 -45 0 0 -45z"/>
 <path d="M2560 515 l0 -45 45 0 45 0 0 45 0 45 -45 0 -45 0 0 -45z"/>
 <path d="M2720 515 l0 -45 45 0 45 0 0 45 0 45 -45 0 -45 0 0 -45z"/>
 <path d="M2880 514 l0 -45 43 3 c42 3 42 3 45 46 l3 42 -45 0 -46 0 0 -46z"/>
 <path d="M3040 514 l0 -45 43 3 c42 3 42 3 45 46 l3 42 -45 0 -46 0 0 -46z"/>
 <path d="M3200 514 l0 -45 43 3 c42 3 42 3 45 46 l3 42 -45 0 -46 0 0 -46z"/>
 <path d="M3360 515 l0 -45 45 0 45 0 0 45 0 45 -45 0 -45 0 0 -45z"/>
 <path d="M3520 515 l0 -45 45 0 45 0 0 45 0 45 -45 0 -45 0 0 -45z"/>
 <path d="M3680 515 l0 -45 40 0 40 0 0 45 0 45 -40 0 -40 0 0 -45z"/>
 <path d="M0 355 l0 -45 40 0 40 0 0 45 0 45 -40 0 -40 0 0 -45z"/>
 <path d="M160 355 l0 -45 40 0 40 0 0 45 0 45 -40 0 -40 0 0 -45z"/>
 <path d="M312 358 c3 -43 3 -43 46 -46 l42 -3 0 45 0 46 -46 0 -45 0 3 -42z"/>
 <path d="M470 355 l0 -45 45 0 45 0 0 45 0 45 -45 0 -45 0 0 -45z"/>
 <path d="M640 355 l0 -45 40 0 40 0 0 45 0 45 -40 0 -40 0 0 -45z"/>
 <path d="M800 355 l0 -45 40 0 40 0 0 45 0 45 -40 0 -40 0 0 -45z"/>
 <path d="M960 355 l0 -45 40 0 40 0 0 45 0 45 -40 0 -40 0 0 -45z"/>
 <path d="M1120 355 l0 -45 40 0 40 0 0 45 0 45 -40 0 -40 0 0 -45z"/>
 <path d="M1280 355 l0 -45 40 0 40 0 0 45 0 45 -40 0 -40 0 0 -45z"/>
 <path d="M1440 355 l0 -45 40 0 40 0 0 45 0 45 -40 0 -40 0 0 -45z"/>
 <path d="M1600 355 l0 -45 40 0 40 0 0 45 0 45 -40 0 -40 0 0 -45z"/>
 <path d="M1760 355 l0 -45 40 0 40 0 0 45 0 45 -40 0 -40 0 0 -45z"/>
 <path d="M1920 354 l0 -45 43 3 c42 3 42 3 45 46 l3 42 -45 0 -46 0 0 -46z"/>
 <path d="M2080 354 l0 -45 43 3 c42 3 42 3 45 46 l3 42 -45 0 -46 0 0 -46z"/>
 <path d="M2240 354 l0 -45 43 3 c42 3 42 3 45 46 l3 42 -45 0 -46 0 0 -46z"/>
 <path d="M2400 355 l0 -45 45 0 45 0 0 45 0 45 -45 0 -45 0 0 -45z"/>
 <path d="M2560 355 l0 -45 45 0 45 0 0 45 0 45 -45 0 -45 0 0 -45z"/>
 <path d="M2720 355 l0 -45 45 0 45 0 0 45 0 45 -45 0 -45 0 0 -45z"/>
 <path d="M2880 354 l0 -45 43 3 c42 3 42 3 45 46 l3 42 -45 0 -46 0 0 -46z"/>
 <path d="M3040 354 l0 -45 43 3 c42 3 42 3 45 46 l3 42 -45 0 -46 0 0 -46z"/>
 <path d="M3200 354 l0 -45 43 3 c42 3 42 3 45 46 l3 42 -45 0 -46 0 0 -46z"/>
 <path d="M3360 355 l0 -45 45 0 45 0 0 45 0 45 -45 0 -45 0 0 -45z"/>
 <path d="M3520 355 l0 -45 45 0 45 0 0 45 0 45 -45 0 -45 0 0 -45z"/>
 <path d="M3680 355 l0 -45 40 0 40 0 0 45 0 45 -40 0 -40 0 0 -45z"/>
 <path d="M0 195 l0 -45 40 0 40 0 0 45 0 45 -40 0 -40 0 0 -45z"/>
 <path d="M160 195 l0 -45 40 0 40 0 0 45 0 45 -40 0 -40 0 0 -45z"/>
 <path d="M312 198 c3 -43 3 -43 46 -46 l42 -3 0 45 0 46 -46 0 -45 0 3 -42z"/>
 <path d="M472 198 c3 -43 3 -43 46 -46 l42 -3 0 45 0 46 -46 0 -45 0 3 -42z"/>
 <path d="M640 195 l0 -45 40 0 40 0 0 45 0 45 -40 0 -40 0 0 -45z"/>
 <path d="M800 195 l0 -45 40 0 40 0 0 45 0 45 -40 0 -40 0 0 -45z"/>
 <path d="M960 195 l0 -45 40 0 40 0 0 45 0 45 -40 0 -40 0 0 -45z"/>
 <path d="M1120 195 l0 -45 40 0 40 0 0 45 0 45 -40 0 -40 0 0 -45z"/>
 <path d="M1280 195 l0 -45 40 0 40 0 0 45 0 45 -40 0 -40 0 0 -45z"/>
 <path d="M1440 195 l0 -45 40 0 40 0 0 45 0 45 -40 0 -40 0 0 -45z"/>
 <path d="M1600 195 l0 -45 40 0 40 0 0 45 0 45 -40 0 -40 0 0 -45z"/>
 <path d="M1760 195 l0 -45 40 0 40 0 0 45 0 45 -40 0 -40 0 0 -45z"/>
 <path d="M1920 194 l0 -45 43 3 c42 3 42 3 45 46 l3 42 -45 0 -46 0 0 -46z"/>
 <path d="M2080 194 l0 -45 43 3 c42 3 42 3 45 46 l3 42 -45 0 -46 0 0 -46z"/>
 <path d="M2240 194 l0 -45 43 3 c42 3 42 3 45 46 l3 42 -45 0 -46 0 0 -46z"/>
 <path d="M2400 194 l0 -45 43 3 c42 3 42 3 45 46 l3 42 -45 0 -46 0 0 -46z"/>
 <path d="M2560 194 l0 -45 43 3 c42 3 42 3 45 46 l3 42 -45 0 -46 0 0 -46z"/>
 <path d="M2720 194 l0 -45 43 3 c42 3 42 3 45 46 l3 42 -45 0 -46 0 0 -46z"/>
 <path d="M2880 194 l0 -45 43 3 c42 3 42 3 45 46 l3 42 -45 0 -46 0 0 -46z"/>
 <path d="M3040 194 l0 -45 43 3 c42 3 42 3 45 46 l3 42 -45 0 -46 0 0 -46z"/>
 <path d="M3200 194 l0 -45 43 3 c42 3 42 3 45 46 l3 42 -45 0 -46 0 0 -46z"/>
 <path d="M3360 194 l0 -45 43 3 c42 3 42 3 45 46 l3 42 -45 0 -46 0 0 -46z"/>
 <path d="M3520 194 l0 -45 43 3 c42 3 42 3 45 46 l3 42 -45 0 -46 0 0 -46z"/>
 <path d="M3680 195 l0 -45 40 0 40 0 0 45 0 45 -40 0 -40 0 0 -45z"/>
 <path d="M0 40 l0 -40 40 0 40 0 0 40 0 40 -40 0 -40 0 0 -40z"/>
 <path d="M160 40 l0 -40 40 0 40 0 0 40 0 40 -40 0 -40 0 0 -40z"/>
 <path d="M310 40 l0 -40 50 0 50 0 0 40 0 40 -50 0 -50 0 0 -40z"/>
 <path d="M470 40 l0 -40 45 0 45 0 0 40 0 40 -45 0 -45 0 0 -40z"/>
 <path d="M640 40 l0 -40 40 0 40 0 0 40 0 40 -40 0 -40 0 0 -40z"/>
 <path d="M800 40 l0 -40 45 0 45 0 0 40 0 40 -45 0 -45 0 0 -40z"/>
 <path d="M960 40 l0 -40 40 0 40 0 0 40 0 40 -40 0 -40 0 0 -40z"/>
 <path d="M1120 40 l0 -40 40 0 40 0 0 40 0 40 -40 0 -40 0 0 -40z"/>
 <path d="M1280 40 l0 -40 45 0 45 0 0 40 0 40 -45 0 -45 0 0 -40z"/>
 <path d="M1440 40 l0 -40 40 0 40 0 0 40 0 40 -40 0 -40 0 0 -40z"/>
 <path d="M1600 40 l0 -40 40 0 40 0 0 40 0 40 -40 0 -40 0 0 -40z"/>
 <path d="M1760 40 l0 -40 45 0 45 0 0 40 0 40 -45 0 -45 0 0 -40z"/>
 <path d="M1920 40 l0 -40 45 0 45 0 0 40 0 40 -45 0 -45 0 0 -40z"/>
 <path d="M2080 40 l0 -40 45 0 45 0 0 40 0 40 -45 0 -45 0 0 -40z"/>
 <path d="M2240 40 l0 -40 45 0 45 0 0 40 0 40 -45 0 -45 0 0 -40z"/>
 <path d="M2400 40 l0 -40 45 0 45 0 0 40 0 40 -45 0 -45 0 0 -40z"/>
 <path d="M2560 40 l0 -40 45 0 45 0 0 40 0 40 -45 0 -45 0 0 -40z"/>
 <path d="M2720 40 l0 -40 45 0 45 0 0 40 0 40 -45 0 -45 0 0 -40z"/>
 <path d="M2880 40 l0 -40 45 0 45 0 0 40 0 40 -45 0 -45 0 0 -40z"/>
 <path d="M3040 40 l0 -40 45 0 45 0 0 40 0 40 -45 0 -45 0 0 -40z"/>
 <path d="M3200 40 l0 -40 45 0 45 0 0 40 0 40 -45 0 -45 0 0 -40z"/>
 <path d="M3360 40 l0 -40 45 0 45 0 0 40 0 40 -45 0 -45 0 0 -40z"/>
 <path d="M3520 40 l0 -40 45 0 45 0 0 40 0 40 -45 0 -45 0 0 -40z"/>
 <path d="M3680 40 l0 -40 40 0 40 0 0 40 0 40 -40 0 -40 0 0 -40z"/>
 </g>

</svg>